<mxfile host="app.diagrams.net" agent="Mozilla/5.0 (X11; Linux x86_64; rv:126.0) Gecko/20100101 Firefox/126.0" version="24.8.3">
  <diagram name="Page-1" id="9V89dMh3oETgwcBDcblh">
    <mxGraphModel grid="1" page="1" gridSize="10" guides="1" tooltips="1" connect="1" arrows="1" fold="1" pageScale="1" pageWidth="850" pageHeight="1100" math="0" shadow="0">
      <root>
        <mxCell id="0" />
        <mxCell id="1" parent="0" />
        <mxCell id="b2OQuQULCkGHzbrU1ZVd-1" value="HOMEPAGE" style="rounded=1;whiteSpace=wrap;html=1;fillColor=#d5e8d4;strokeColor=#82b366;" vertex="1" parent="1">
          <mxGeometry x="352" y="40" width="147" height="60" as="geometry" />
        </mxCell>
        <mxCell id="b2OQuQULCkGHzbrU1ZVd-2" value="ABOUT" style="rounded=1;whiteSpace=wrap;html=1;fillColor=#dae8fc;strokeColor=#6c8ebf;" vertex="1" parent="1">
          <mxGeometry x="40" y="170" width="150" height="60" as="geometry" />
        </mxCell>
        <mxCell id="b2OQuQULCkGHzbrU1ZVd-4" value="VIEW NOTEPAGES" style="rounded=1;whiteSpace=wrap;html=1;fillColor=#fff2cc;strokeColor=#d6b656;" vertex="1" parent="1">
          <mxGeometry x="260" y="170" width="150" height="60" as="geometry" />
        </mxCell>
        <mxCell id="b2OQuQULCkGHzbrU1ZVd-5" value="CREATE NOTEPAGE" style="rounded=1;whiteSpace=wrap;html=1;fillColor=#dae8fc;strokeColor=#6c8ebf;" vertex="1" parent="1">
          <mxGeometry x="470" y="170" width="150" height="60" as="geometry" />
        </mxCell>
        <mxCell id="b2OQuQULCkGHzbrU1ZVd-6" value="STATS" style="rounded=1;whiteSpace=wrap;html=1;fillColor=#dae8fc;strokeColor=#6c8ebf;" vertex="1" parent="1">
          <mxGeometry x="670" y="170" width="150" height="60" as="geometry" />
        </mxCell>
        <mxCell id="b2OQuQULCkGHzbrU1ZVd-7" value="" style="endArrow=classic;html=1;rounded=0;edgeStyle=orthogonalEdgeStyle;curved=1;" edge="1" parent="1" source="b2OQuQULCkGHzbrU1ZVd-1" target="b2OQuQULCkGHzbrU1ZVd-2">
          <mxGeometry width="50" height="50" relative="1" as="geometry">
            <mxPoint x="260" y="330" as="sourcePoint" />
            <mxPoint x="310" y="280" as="targetPoint" />
            <Array as="points">
              <mxPoint x="426" y="130" />
              <mxPoint x="115" y="130" />
            </Array>
          </mxGeometry>
        </mxCell>
        <mxCell id="b2OQuQULCkGHzbrU1ZVd-8" value="" style="endArrow=classic;html=1;rounded=0;edgeStyle=orthogonalEdgeStyle;curved=1;" edge="1" parent="1" source="b2OQuQULCkGHzbrU1ZVd-1" target="b2OQuQULCkGHzbrU1ZVd-4">
          <mxGeometry width="50" height="50" relative="1" as="geometry">
            <mxPoint x="470" y="260" as="sourcePoint" />
            <mxPoint x="520" y="210" as="targetPoint" />
          </mxGeometry>
        </mxCell>
        <mxCell id="b2OQuQULCkGHzbrU1ZVd-9" value="" style="endArrow=classic;html=1;rounded=0;edgeStyle=orthogonalEdgeStyle;curved=1;" edge="1" parent="1" source="b2OQuQULCkGHzbrU1ZVd-1" target="b2OQuQULCkGHzbrU1ZVd-5">
          <mxGeometry width="50" height="50" relative="1" as="geometry">
            <mxPoint x="620" y="140" as="sourcePoint" />
            <mxPoint x="670" y="90" as="targetPoint" />
          </mxGeometry>
        </mxCell>
        <mxCell id="b2OQuQULCkGHzbrU1ZVd-10" value="" style="endArrow=classic;html=1;rounded=0;edgeStyle=orthogonalEdgeStyle;curved=1;" edge="1" parent="1" source="b2OQuQULCkGHzbrU1ZVd-1" target="b2OQuQULCkGHzbrU1ZVd-6">
          <mxGeometry width="50" height="50" relative="1" as="geometry">
            <mxPoint x="680" y="110" as="sourcePoint" />
            <mxPoint x="730" y="60" as="targetPoint" />
            <Array as="points">
              <mxPoint x="426" y="130" />
              <mxPoint x="745" y="130" />
            </Array>
          </mxGeometry>
        </mxCell>
        <mxCell id="b2OQuQULCkGHzbrU1ZVd-11" value="NOTEPAGE VIEW" style="rounded=1;whiteSpace=wrap;html=1;fillColor=#fff2cc;strokeColor=#d6b656;" vertex="1" parent="1">
          <mxGeometry x="275" y="320" width="120" height="60" as="geometry" />
        </mxCell>
        <mxCell id="b2OQuQULCkGHzbrU1ZVd-12" value="" style="endArrow=classic;html=1;rounded=0;edgeStyle=orthogonalEdgeStyle;curved=1;" edge="1" parent="1" source="b2OQuQULCkGHzbrU1ZVd-4" target="b2OQuQULCkGHzbrU1ZVd-11">
          <mxGeometry width="50" height="50" relative="1" as="geometry">
            <mxPoint x="450" y="320" as="sourcePoint" />
            <mxPoint x="500" y="270" as="targetPoint" />
          </mxGeometry>
        </mxCell>
        <mxCell id="b2OQuQULCkGHzbrU1ZVd-13" value="" style="endArrow=classic;html=1;rounded=0;edgeStyle=orthogonalEdgeStyle;curved=1;" edge="1" parent="1" source="b2OQuQULCkGHzbrU1ZVd-4" target="b2OQuQULCkGHzbrU1ZVd-14">
          <mxGeometry width="50" height="50" relative="1" as="geometry">
            <mxPoint x="270" y="340" as="sourcePoint" />
            <mxPoint x="230" y="280" as="targetPoint" />
            <Array as="points">
              <mxPoint x="335" y="260" />
              <mxPoint x="180" y="260" />
            </Array>
          </mxGeometry>
        </mxCell>
        <mxCell id="b2OQuQULCkGHzbrU1ZVd-14" value="BOOKMARKED NOTEPAGES" style="rounded=1;whiteSpace=wrap;html=1;fillColor=#fff2cc;strokeColor=#d6b656;" vertex="1" parent="1">
          <mxGeometry x="120" y="320" width="120" height="60" as="geometry" />
        </mxCell>
        <mxCell id="b2OQuQULCkGHzbrU1ZVd-15" value="NOTEPAGE VIEW" style="rounded=1;whiteSpace=wrap;html=1;fillColor=#fff2cc;strokeColor=#d6b656;" vertex="1" parent="1">
          <mxGeometry x="120" y="430" width="120" height="60" as="geometry" />
        </mxCell>
        <mxCell id="b2OQuQULCkGHzbrU1ZVd-16" value="" style="endArrow=classic;html=1;rounded=0;edgeStyle=orthogonalEdgeStyle;curved=1;" edge="1" parent="1" source="b2OQuQULCkGHzbrU1ZVd-14" target="b2OQuQULCkGHzbrU1ZVd-15">
          <mxGeometry width="50" height="50" relative="1" as="geometry">
            <mxPoint x="330" y="490" as="sourcePoint" />
            <mxPoint x="380" y="440" as="targetPoint" />
          </mxGeometry>
        </mxCell>
        <mxCell id="b2OQuQULCkGHzbrU1ZVd-19" value="" style="endArrow=classic;html=1;rounded=0;edgeStyle=orthogonalEdgeStyle;curved=1;" edge="1" parent="1" source="b2OQuQULCkGHzbrU1ZVd-4" target="b2OQuQULCkGHzbrU1ZVd-20">
          <mxGeometry width="50" height="50" relative="1" as="geometry">
            <mxPoint x="490" y="340" as="sourcePoint" />
            <mxPoint x="540" y="290" as="targetPoint" />
            <Array as="points">
              <mxPoint x="335" y="260" />
              <mxPoint x="490" y="260" />
            </Array>
          </mxGeometry>
        </mxCell>
        <mxCell id="b2OQuQULCkGHzbrU1ZVd-20" value="LINKED NOTEPAGES" style="rounded=1;whiteSpace=wrap;html=1;fillColor=#fff2cc;strokeColor=#d6b656;" vertex="1" parent="1">
          <mxGeometry x="430" y="320" width="120" height="60" as="geometry" />
        </mxCell>
        <mxCell id="b2OQuQULCkGHzbrU1ZVd-21" value="NOTEPAGE VIEW" style="rounded=1;whiteSpace=wrap;html=1;fillColor=#fff2cc;strokeColor=#d6b656;" vertex="1" parent="1">
          <mxGeometry x="430" y="430" width="120" height="60" as="geometry" />
        </mxCell>
        <mxCell id="b2OQuQULCkGHzbrU1ZVd-22" value="" style="endArrow=classic;html=1;rounded=0;" edge="1" parent="1" source="b2OQuQULCkGHzbrU1ZVd-20" target="b2OQuQULCkGHzbrU1ZVd-21">
          <mxGeometry width="50" height="50" relative="1" as="geometry">
            <mxPoint x="620" y="390" as="sourcePoint" />
            <mxPoint x="670" y="340" as="targetPoint" />
          </mxGeometry>
        </mxCell>
        <mxCell id="b2OQuQULCkGHzbrU1ZVd-23" value="" style="endArrow=classic;html=1;rounded=0;edgeStyle=orthogonalEdgeStyle;curved=1;" edge="1" parent="1" source="b2OQuQULCkGHzbrU1ZVd-5" target="b2OQuQULCkGHzbrU1ZVd-24">
          <mxGeometry width="50" height="50" relative="1" as="geometry">
            <mxPoint x="660" y="340" as="sourcePoint" />
            <mxPoint x="710" y="290" as="targetPoint" />
            <Array as="points">
              <mxPoint x="545" y="270" />
              <mxPoint x="710" y="270" />
            </Array>
          </mxGeometry>
        </mxCell>
        <mxCell id="b2OQuQULCkGHzbrU1ZVd-24" value="NOTEPAGE VIEW" style="rounded=1;whiteSpace=wrap;html=1;fillColor=#fff2cc;strokeColor=#d6b656;" vertex="1" parent="1">
          <mxGeometry x="650" y="320" width="120" height="60" as="geometry" />
        </mxCell>
      </root>
    </mxGraphModel>
  </diagram>
</mxfile>
